<svg width="800" height="600" xmlns="http://www.w3.org/2000/svg" style="background-color:black">
<line x1="150" y1="105.0" x2="400" y2="35.0" stroke="#555" stroke-width="0.5" />
<line x1="150" y1="105.0" x2="400" y2="70.0" stroke="#555" stroke-width="0.5" />
<line x1="150" y1="105.0" x2="400" y2="105.0" stroke="#555" stroke-width="0.5" />
<line x1="150" y1="105.0" x2="400" y2="140.0" stroke="#555" stroke-width="0.5" />
<line x1="150" y1="105.0" x2="400" y2="175.0" stroke="#555" stroke-width="0.5" />
<line x1="150" y1="105.0" x2="400" y2="210.0" stroke="#555" stroke-width="0.5" />
<line x1="150" y1="105.0" x2="400" y2="245.0" stroke="#555" stroke-width="0.5" />
<line x1="150" y1="105.0" x2="400" y2="280.0" stroke="#555" stroke-width="0.5" />
<line x1="150" y1="105.0" x2="400" y2="315.0" stroke="#555" stroke-width="0.5" />
<line x1="150" y1="105.0" x2="400" y2="350.0" stroke="#555" stroke-width="0.5" />
<line x1="150" y1="105.0" x2="400" y2="385.0" stroke="#555" stroke-width="0.5" />
<line x1="150" y1="105.0" x2="400" y2="420.0" stroke="#555" stroke-width="0.5" />
<line x1="150" y1="105.0" x2="400" y2="455.0" stroke="#555" stroke-width="0.5" />
<line x1="150" y1="105.0" x2="400" y2="490.0" stroke="#555" stroke-width="0.5" />
<line x1="150" y1="105.0" x2="400" y2="525.0" stroke="#555" stroke-width="0.5" />
<line x1="150" y1="105.0" x2="400" y2="560.0" stroke="#555" stroke-width="0.5" />
<line x1="150" y1="140.0" x2="400" y2="35.0" stroke="#555" stroke-width="0.5" />
<line x1="150" y1="140.0" x2="400" y2="70.0" stroke="#555" stroke-width="0.5" />
<line x1="150" y1="140.0" x2="400" y2="105.0" stroke="#555" stroke-width="0.5" />
<line x1="150" y1="140.0" x2="400" y2="140.0" stroke="#555" stroke-width="0.5" />
<line x1="150" y1="140.0" x2="400" y2="175.0" stroke="#555" stroke-width="0.5" />
<line x1="150" y1="140.0" x2="400" y2="210.0" stroke="#555" stroke-width="0.5" />
<line x1="150" y1="140.0" x2="400" y2="245.0" stroke="#555" stroke-width="0.5" />
<line x1="150" y1="140.0" x2="400" y2="280.0" stroke="#555" stroke-width="0.5" />
<line x1="150" y1="140.0" x2="400" y2="315.0" stroke="#555" stroke-width="0.5" />
<line x1="150" y1="140.0" x2="400" y2="350.0" stroke="#555" stroke-width="0.5" />
<line x1="150" y1="140.0" x2="400" y2="385.0" stroke="#555" stroke-width="0.5" />
<line x1="150" y1="140.0" x2="400" y2="420.0" stroke="#555" stroke-width="0.5" />
<line x1="150" y1="140.0" x2="400" y2="455.0" stroke="#555" stroke-width="0.5" />
<line x1="150" y1="140.0" x2="400" y2="490.0" stroke="#555" stroke-width="0.5" />
<line x1="150" y1="140.0" x2="400" y2="525.0" stroke="#555" stroke-width="0.5" />
<line x1="150" y1="140.0" x2="400" y2="560.0" stroke="#555" stroke-width="0.5" />
<line x1="150" y1="175.0" x2="400" y2="35.0" stroke="#555" stroke-width="0.5" />
<line x1="150" y1="175.0" x2="400" y2="70.0" stroke="#555" stroke-width="0.5" />
<line x1="150" y1="175.0" x2="400" y2="105.0" stroke="#555" stroke-width="0.5" />
<line x1="150" y1="175.0" x2="400" y2="140.0" stroke="#555" stroke-width="0.5" />
<line x1="150" y1="175.0" x2="400" y2="175.0" stroke="#555" stroke-width="0.5" />
<line x1="150" y1="175.0" x2="400" y2="210.0" stroke="#555" stroke-width="0.5" />
<line x1="150" y1="175.0" x2="400" y2="245.0" stroke="#555" stroke-width="0.5" />
<line x1="150" y1="175.0" x2="400" y2="280.0" stroke="#555" stroke-width="0.5" />
<line x1="150" y1="175.0" x2="400" y2="315.0" stroke="#555" stroke-width="0.5" />
<line x1="150" y1="175.0" x2="400" y2="350.0" stroke="#555" stroke-width="0.5" />
<line x1="150" y1="175.0" x2="400" y2="385.0" stroke="#555" stroke-width="0.5" />
<line x1="150" y1="175.0" x2="400" y2="420.0" stroke="#555" stroke-width="0.5" />
<line x1="150" y1="175.0" x2="400" y2="455.0" stroke="#555" stroke-width="0.5" />
<line x1="150" y1="175.0" x2="400" y2="490.0" stroke="#555" stroke-width="0.5" />
<line x1="150" y1="175.0" x2="400" y2="525.0" stroke="#555" stroke-width="0.5" />
<line x1="150" y1="175.0" x2="400" y2="560.0" stroke="#555" stroke-width="0.5" />
<line x1="150" y1="210.0" x2="400" y2="35.0" stroke="#555" stroke-width="0.5" />
<line x1="150" y1="210.0" x2="400" y2="70.0" stroke="#555" stroke-width="0.5" />
<line x1="150" y1="210.0" x2="400" y2="105.0" stroke="#555" stroke-width="0.5" />
<line x1="150" y1="210.0" x2="400" y2="140.0" stroke="#555" stroke-width="0.5" />
<line x1="150" y1="210.0" x2="400" y2="175.0" stroke="#555" stroke-width="0.5" />
<line x1="150" y1="210.0" x2="400" y2="210.0" stroke="#555" stroke-width="0.5" />
<line x1="150" y1="210.0" x2="400" y2="245.0" stroke="#555" stroke-width="0.5" />
<line x1="150" y1="210.0" x2="400" y2="280.0" stroke="#555" stroke-width="0.5" />
<line x1="150" y1="210.0" x2="400" y2="315.0" stroke="#555" stroke-width="0.5" />
<line x1="150" y1="210.0" x2="400" y2="350.0" stroke="#555" stroke-width="0.5" />
<line x1="150" y1="210.0" x2="400" y2="385.0" stroke="#555" stroke-width="0.5" />
<line x1="150" y1="210.0" x2="400" y2="420.0" stroke="#555" stroke-width="0.5" />
<line x1="150" y1="210.0" x2="400" y2="455.0" stroke="#555" stroke-width="0.5" />
<line x1="150" y1="210.0" x2="400" y2="490.0" stroke="#555" stroke-width="0.5" />
<line x1="150" y1="210.0" x2="400" y2="525.0" stroke="#555" stroke-width="0.5" />
<line x1="150" y1="210.0" x2="400" y2="560.0" stroke="#555" stroke-width="0.5" />
<line x1="150" y1="245.0" x2="400" y2="35.0" stroke="#555" stroke-width="0.5" />
<line x1="150" y1="245.0" x2="400" y2="70.0" stroke="#555" stroke-width="0.5" />
<line x1="150" y1="245.0" x2="400" y2="105.0" stroke="#555" stroke-width="0.5" />
<line x1="150" y1="245.0" x2="400" y2="140.0" stroke="#555" stroke-width="0.5" />
<line x1="150" y1="245.0" x2="400" y2="175.0" stroke="#555" stroke-width="0.5" />
<line x1="150" y1="245.0" x2="400" y2="210.0" stroke="#555" stroke-width="0.5" />
<line x1="150" y1="245.0" x2="400" y2="245.0" stroke="#555" stroke-width="0.5" />
<line x1="150" y1="245.0" x2="400" y2="280.0" stroke="#555" stroke-width="0.5" />
<line x1="150" y1="245.0" x2="400" y2="315.0" stroke="#555" stroke-width="0.5" />
<line x1="150" y1="245.0" x2="400" y2="350.0" stroke="#555" stroke-width="0.5" />
<line x1="150" y1="245.0" x2="400" y2="385.0" stroke="#555" stroke-width="0.5" />
<line x1="150" y1="245.0" x2="400" y2="420.0" stroke="#555" stroke-width="0.5" />
<line x1="150" y1="245.0" x2="400" y2="455.0" stroke="#555" stroke-width="0.5" />
<line x1="150" y1="245.0" x2="400" y2="490.0" stroke="#555" stroke-width="0.5" />
<line x1="150" y1="245.0" x2="400" y2="525.0" stroke="#555" stroke-width="0.5" />
<line x1="150" y1="245.0" x2="400" y2="560.0" stroke="#555" stroke-width="0.5" />
<line x1="150" y1="280.0" x2="400" y2="35.0" stroke="#555" stroke-width="0.5" />
<line x1="150" y1="280.0" x2="400" y2="70.0" stroke="#555" stroke-width="0.5" />
<line x1="150" y1="280.0" x2="400" y2="105.0" stroke="#555" stroke-width="0.5" />
<line x1="150" y1="280.0" x2="400" y2="140.0" stroke="#555" stroke-width="0.5" />
<line x1="150" y1="280.0" x2="400" y2="175.0" stroke="#555" stroke-width="0.5" />
<line x1="150" y1="280.0" x2="400" y2="210.0" stroke="#555" stroke-width="0.5" />
<line x1="150" y1="280.0" x2="400" y2="245.0" stroke="#555" stroke-width="0.5" />
<line x1="150" y1="280.0" x2="400" y2="280.0" stroke="#555" stroke-width="0.5" />
<line x1="150" y1="280.0" x2="400" y2="315.0" stroke="#555" stroke-width="0.5" />
<line x1="150" y1="280.0" x2="400" y2="350.0" stroke="#555" stroke-width="0.5" />
<line x1="150" y1="280.0" x2="400" y2="385.0" stroke="#555" stroke-width="0.5" />
<line x1="150" y1="280.0" x2="400" y2="420.0" stroke="#555" stroke-width="0.5" />
<line x1="150" y1="280.0" x2="400" y2="455.0" stroke="#555" stroke-width="0.5" />
<line x1="150" y1="280.0" x2="400" y2="490.0" stroke="#555" stroke-width="0.5" />
<line x1="150" y1="280.0" x2="400" y2="525.0" stroke="#555" stroke-width="0.5" />
<line x1="150" y1="280.0" x2="400" y2="560.0" stroke="#555" stroke-width="0.5" />
<line x1="150" y1="315.0" x2="400" y2="35.0" stroke="#555" stroke-width="0.5" />
<line x1="150" y1="315.0" x2="400" y2="70.0" stroke="#555" stroke-width="0.5" />
<line x1="150" y1="315.0" x2="400" y2="105.0" stroke="#555" stroke-width="0.5" />
<line x1="150" y1="315.0" x2="400" y2="140.0" stroke="#555" stroke-width="0.5" />
<line x1="150" y1="315.0" x2="400" y2="175.0" stroke="#555" stroke-width="0.5" />
<line x1="150" y1="315.0" x2="400" y2="210.0" stroke="#555" stroke-width="0.5" />
<line x1="150" y1="315.0" x2="400" y2="245.0" stroke="#555" stroke-width="0.5" />
<line x1="150" y1="315.0" x2="400" y2="280.0" stroke="#555" stroke-width="0.5" />
<line x1="150" y1="315.0" x2="400" y2="315.0" stroke="#555" stroke-width="0.5" />
<line x1="150" y1="315.0" x2="400" y2="350.0" stroke="#555" stroke-width="0.5" />
<line x1="150" y1="315.0" x2="400" y2="385.0" stroke="#555" stroke-width="0.5" />
<line x1="150" y1="315.0" x2="400" y2="420.0" stroke="#555" stroke-width="0.5" />
<line x1="150" y1="315.0" x2="400" y2="455.0" stroke="#555" stroke-width="0.5" />
<line x1="150" y1="315.0" x2="400" y2="490.0" stroke="#555" stroke-width="0.5" />
<line x1="150" y1="315.0" x2="400" y2="525.0" stroke="#555" stroke-width="0.5" />
<line x1="150" y1="315.0" x2="400" y2="560.0" stroke="#555" stroke-width="0.5" />
<line x1="150" y1="350.0" x2="400" y2="35.0" stroke="#555" stroke-width="0.5" />
<line x1="150" y1="350.0" x2="400" y2="70.0" stroke="#555" stroke-width="0.5" />
<line x1="150" y1="350.0" x2="400" y2="105.0" stroke="#555" stroke-width="0.5" />
<line x1="150" y1="350.0" x2="400" y2="140.0" stroke="#555" stroke-width="0.5" />
<line x1="150" y1="350.0" x2="400" y2="175.0" stroke="#555" stroke-width="0.5" />
<line x1="150" y1="350.0" x2="400" y2="210.0" stroke="#555" stroke-width="0.5" />
<line x1="150" y1="350.0" x2="400" y2="245.0" stroke="#555" stroke-width="0.5" />
<line x1="150" y1="350.0" x2="400" y2="280.0" stroke="#555" stroke-width="0.5" />
<line x1="150" y1="350.0" x2="400" y2="315.0" stroke="#555" stroke-width="0.5" />
<line x1="150" y1="350.0" x2="400" y2="350.0" stroke="#555" stroke-width="0.5" />
<line x1="150" y1="350.0" x2="400" y2="385.0" stroke="#555" stroke-width="0.5" />
<line x1="150" y1="350.0" x2="400" y2="420.0" stroke="#555" stroke-width="0.5" />
<line x1="150" y1="350.0" x2="400" y2="455.0" stroke="#555" stroke-width="0.5" />
<line x1="150" y1="350.0" x2="400" y2="490.0" stroke="#555" stroke-width="0.5" />
<line x1="150" y1="350.0" x2="400" y2="525.0" stroke="#555" stroke-width="0.5" />
<line x1="150" y1="350.0" x2="400" y2="560.0" stroke="#555" stroke-width="0.5" />
<line x1="150" y1="385.0" x2="400" y2="35.0" stroke="#555" stroke-width="0.5" />
<line x1="150" y1="385.0" x2="400" y2="70.0" stroke="#555" stroke-width="0.5" />
<line x1="150" y1="385.0" x2="400" y2="105.0" stroke="#555" stroke-width="0.5" />
<line x1="150" y1="385.0" x2="400" y2="140.0" stroke="#555" stroke-width="0.5" />
<line x1="150" y1="385.0" x2="400" y2="175.0" stroke="#555" stroke-width="0.5" />
<line x1="150" y1="385.0" x2="400" y2="210.0" stroke="#555" stroke-width="0.5" />
<line x1="150" y1="385.0" x2="400" y2="245.0" stroke="#555" stroke-width="0.5" />
<line x1="150" y1="385.0" x2="400" y2="280.0" stroke="#555" stroke-width="0.5" />
<line x1="150" y1="385.0" x2="400" y2="315.0" stroke="#555" stroke-width="0.5" />
<line x1="150" y1="385.0" x2="400" y2="350.0" stroke="#555" stroke-width="0.5" />
<line x1="150" y1="385.0" x2="400" y2="385.0" stroke="#555" stroke-width="0.5" />
<line x1="150" y1="385.0" x2="400" y2="420.0" stroke="#555" stroke-width="0.5" />
<line x1="150" y1="385.0" x2="400" y2="455.0" stroke="#555" stroke-width="0.5" />
<line x1="150" y1="385.0" x2="400" y2="490.0" stroke="#555" stroke-width="0.5" />
<line x1="150" y1="385.0" x2="400" y2="525.0" stroke="#555" stroke-width="0.5" />
<line x1="150" y1="385.0" x2="400" y2="560.0" stroke="#555" stroke-width="0.5" />
<line x1="150" y1="420.0" x2="400" y2="35.0" stroke="#555" stroke-width="0.5" />
<line x1="150" y1="420.0" x2="400" y2="70.0" stroke="#555" stroke-width="0.5" />
<line x1="150" y1="420.0" x2="400" y2="105.0" stroke="#555" stroke-width="0.5" />
<line x1="150" y1="420.0" x2="400" y2="140.0" stroke="#555" stroke-width="0.5" />
<line x1="150" y1="420.0" x2="400" y2="175.0" stroke="#555" stroke-width="0.5" />
<line x1="150" y1="420.0" x2="400" y2="210.0" stroke="#555" stroke-width="0.5" />
<line x1="150" y1="420.0" x2="400" y2="245.0" stroke="#555" stroke-width="0.5" />
<line x1="150" y1="420.0" x2="400" y2="280.0" stroke="#555" stroke-width="0.5" />
<line x1="150" y1="420.0" x2="400" y2="315.0" stroke="#555" stroke-width="0.5" />
<line x1="150" y1="420.0" x2="400" y2="350.0" stroke="#555" stroke-width="0.5" />
<line x1="150" y1="420.0" x2="400" y2="385.0" stroke="#555" stroke-width="0.5" />
<line x1="150" y1="420.0" x2="400" y2="420.0" stroke="#555" stroke-width="0.5" />
<line x1="150" y1="420.0" x2="400" y2="455.0" stroke="#555" stroke-width="0.5" />
<line x1="150" y1="420.0" x2="400" y2="490.0" stroke="#555" stroke-width="0.5" />
<line x1="150" y1="420.0" x2="400" y2="525.0" stroke="#555" stroke-width="0.5" />
<line x1="150" y1="420.0" x2="400" y2="560.0" stroke="#555" stroke-width="0.5" />
<line x1="150" y1="455.0" x2="400" y2="35.0" stroke="#555" stroke-width="0.5" />
<line x1="150" y1="455.0" x2="400" y2="70.0" stroke="#555" stroke-width="0.5" />
<line x1="150" y1="455.0" x2="400" y2="105.0" stroke="#555" stroke-width="0.5" />
<line x1="150" y1="455.0" x2="400" y2="140.0" stroke="#555" stroke-width="0.5" />
<line x1="150" y1="455.0" x2="400" y2="175.0" stroke="#555" stroke-width="0.5" />
<line x1="150" y1="455.0" x2="400" y2="210.0" stroke="#555" stroke-width="0.5" />
<line x1="150" y1="455.0" x2="400" y2="245.0" stroke="#555" stroke-width="0.5" />
<line x1="150" y1="455.0" x2="400" y2="280.0" stroke="#555" stroke-width="0.5" />
<line x1="150" y1="455.0" x2="400" y2="315.0" stroke="#555" stroke-width="0.5" />
<line x1="150" y1="455.0" x2="400" y2="350.0" stroke="#555" stroke-width="0.5" />
<line x1="150" y1="455.0" x2="400" y2="385.0" stroke="#555" stroke-width="0.5" />
<line x1="150" y1="455.0" x2="400" y2="420.0" stroke="#555" stroke-width="0.5" />
<line x1="150" y1="455.0" x2="400" y2="455.0" stroke="#555" stroke-width="0.5" />
<line x1="150" y1="455.0" x2="400" y2="490.0" stroke="#555" stroke-width="0.5" />
<line x1="150" y1="455.0" x2="400" y2="525.0" stroke="#555" stroke-width="0.5" />
<line x1="150" y1="455.0" x2="400" y2="560.0" stroke="#555" stroke-width="0.5" />
<line x1="150" y1="490.0" x2="400" y2="35.0" stroke="#555" stroke-width="0.5" />
<line x1="150" y1="490.0" x2="400" y2="70.0" stroke="#555" stroke-width="0.5" />
<line x1="150" y1="490.0" x2="400" y2="105.0" stroke="#555" stroke-width="0.5" />
<line x1="150" y1="490.0" x2="400" y2="140.0" stroke="#555" stroke-width="0.5" />
<line x1="150" y1="490.0" x2="400" y2="175.0" stroke="#555" stroke-width="0.5" />
<line x1="150" y1="490.0" x2="400" y2="210.0" stroke="#555" stroke-width="0.5" />
<line x1="150" y1="490.0" x2="400" y2="245.0" stroke="#555" stroke-width="0.5" />
<line x1="150" y1="490.0" x2="400" y2="280.0" stroke="#555" stroke-width="0.5" />
<line x1="150" y1="490.0" x2="400" y2="315.0" stroke="#555" stroke-width="0.5" />
<line x1="150" y1="490.0" x2="400" y2="350.0" stroke="#555" stroke-width="0.5" />
<line x1="150" y1="490.0" x2="400" y2="385.0" stroke="#555" stroke-width="0.5" />
<line x1="150" y1="490.0" x2="400" y2="420.0" stroke="#555" stroke-width="0.5" />
<line x1="150" y1="490.0" x2="400" y2="455.0" stroke="#555" stroke-width="0.5" />
<line x1="150" y1="490.0" x2="400" y2="490.0" stroke="#555" stroke-width="0.5" />
<line x1="150" y1="490.0" x2="400" y2="525.0" stroke="#555" stroke-width="0.5" />
<line x1="150" y1="490.0" x2="400" y2="560.0" stroke="#555" stroke-width="0.5" />
<line x1="400" y1="35.0" x2="650" y2="227.5" stroke="#555" stroke-width="0.5" />
<line x1="400" y1="35.0" x2="650" y2="262.5" stroke="#555" stroke-width="0.5" />
<line x1="400" y1="35.0" x2="650" y2="297.5" stroke="#555" stroke-width="0.5" />
<line x1="400" y1="35.0" x2="650" y2="332.5" stroke="#555" stroke-width="0.5" />
<line x1="400" y1="35.0" x2="650" y2="367.5" stroke="#555" stroke-width="0.5" />
<line x1="400" y1="70.0" x2="650" y2="227.5" stroke="#555" stroke-width="0.5" />
<line x1="400" y1="70.0" x2="650" y2="262.5" stroke="#555" stroke-width="0.5" />
<line x1="400" y1="70.0" x2="650" y2="297.5" stroke="#555" stroke-width="0.5" />
<line x1="400" y1="70.0" x2="650" y2="332.5" stroke="#555" stroke-width="0.5" />
<line x1="400" y1="70.0" x2="650" y2="367.5" stroke="#555" stroke-width="0.5" />
<line x1="400" y1="105.0" x2="650" y2="227.5" stroke="#555" stroke-width="0.5" />
<line x1="400" y1="105.0" x2="650" y2="262.5" stroke="#555" stroke-width="0.5" />
<line x1="400" y1="105.0" x2="650" y2="297.5" stroke="#555" stroke-width="0.5" />
<line x1="400" y1="105.0" x2="650" y2="332.5" stroke="#555" stroke-width="0.5" />
<line x1="400" y1="105.0" x2="650" y2="367.5" stroke="#555" stroke-width="0.5" />
<line x1="400" y1="140.0" x2="650" y2="227.5" stroke="#555" stroke-width="0.5" />
<line x1="400" y1="140.0" x2="650" y2="262.5" stroke="#555" stroke-width="0.5" />
<line x1="400" y1="140.0" x2="650" y2="297.5" stroke="#555" stroke-width="0.5" />
<line x1="400" y1="140.0" x2="650" y2="332.5" stroke="#555" stroke-width="0.5" />
<line x1="400" y1="140.0" x2="650" y2="367.5" stroke="#555" stroke-width="0.5" />
<line x1="400" y1="175.0" x2="650" y2="227.5" stroke="#555" stroke-width="0.5" />
<line x1="400" y1="175.0" x2="650" y2="262.5" stroke="#555" stroke-width="0.5" />
<line x1="400" y1="175.0" x2="650" y2="297.5" stroke="#555" stroke-width="0.5" />
<line x1="400" y1="175.0" x2="650" y2="332.5" stroke="#555" stroke-width="0.5" />
<line x1="400" y1="175.0" x2="650" y2="367.5" stroke="#555" stroke-width="0.5" />
<line x1="400" y1="210.0" x2="650" y2="227.5" stroke="#555" stroke-width="0.5" />
<line x1="400" y1="210.0" x2="650" y2="262.5" stroke="#555" stroke-width="0.5" />
<line x1="400" y1="210.0" x2="650" y2="297.5" stroke="#555" stroke-width="0.5" />
<line x1="400" y1="210.0" x2="650" y2="332.5" stroke="#555" stroke-width="0.5" />
<line x1="400" y1="210.0" x2="650" y2="367.5" stroke="#555" stroke-width="0.5" />
<line x1="400" y1="245.0" x2="650" y2="227.5" stroke="#555" stroke-width="0.5" />
<line x1="400" y1="245.0" x2="650" y2="262.5" stroke="#555" stroke-width="0.5" />
<line x1="400" y1="245.0" x2="650" y2="297.5" stroke="#555" stroke-width="0.5" />
<line x1="400" y1="245.0" x2="650" y2="332.5" stroke="#555" stroke-width="0.5" />
<line x1="400" y1="245.0" x2="650" y2="367.5" stroke="#555" stroke-width="0.5" />
<line x1="400" y1="280.0" x2="650" y2="227.5" stroke="#555" stroke-width="0.5" />
<line x1="400" y1="280.0" x2="650" y2="262.5" stroke="#555" stroke-width="0.5" />
<line x1="400" y1="280.0" x2="650" y2="297.5" stroke="#555" stroke-width="0.5" />
<line x1="400" y1="280.0" x2="650" y2="332.5" stroke="#555" stroke-width="0.5" />
<line x1="400" y1="280.0" x2="650" y2="367.5" stroke="#555" stroke-width="0.5" />
<line x1="400" y1="315.0" x2="650" y2="227.5" stroke="#555" stroke-width="0.5" />
<line x1="400" y1="315.0" x2="650" y2="262.5" stroke="#555" stroke-width="0.5" />
<line x1="400" y1="315.0" x2="650" y2="297.5" stroke="#555" stroke-width="0.5" />
<line x1="400" y1="315.0" x2="650" y2="332.5" stroke="#555" stroke-width="0.5" />
<line x1="400" y1="315.0" x2="650" y2="367.5" stroke="#555" stroke-width="0.5" />
<line x1="400" y1="350.0" x2="650" y2="227.5" stroke="#555" stroke-width="0.5" />
<line x1="400" y1="350.0" x2="650" y2="262.5" stroke="#555" stroke-width="0.5" />
<line x1="400" y1="350.0" x2="650" y2="297.5" stroke="#555" stroke-width="0.5" />
<line x1="400" y1="350.0" x2="650" y2="332.5" stroke="#555" stroke-width="0.5" />
<line x1="400" y1="350.0" x2="650" y2="367.5" stroke="#555" stroke-width="0.5" />
<line x1="400" y1="385.0" x2="650" y2="227.5" stroke="#555" stroke-width="0.5" />
<line x1="400" y1="385.0" x2="650" y2="262.5" stroke="#555" stroke-width="0.5" />
<line x1="400" y1="385.0" x2="650" y2="297.5" stroke="#555" stroke-width="0.5" />
<line x1="400" y1="385.0" x2="650" y2="332.5" stroke="#555" stroke-width="0.5" />
<line x1="400" y1="385.0" x2="650" y2="367.5" stroke="#555" stroke-width="0.5" />
<line x1="400" y1="420.0" x2="650" y2="227.5" stroke="#555" stroke-width="0.5" />
<line x1="400" y1="420.0" x2="650" y2="262.5" stroke="#555" stroke-width="0.5" />
<line x1="400" y1="420.0" x2="650" y2="297.5" stroke="#555" stroke-width="0.5" />
<line x1="400" y1="420.0" x2="650" y2="332.5" stroke="#555" stroke-width="0.5" />
<line x1="400" y1="420.0" x2="650" y2="367.5" stroke="#555" stroke-width="0.5" />
<line x1="400" y1="455.0" x2="650" y2="227.5" stroke="#555" stroke-width="0.5" />
<line x1="400" y1="455.0" x2="650" y2="262.5" stroke="#555" stroke-width="0.5" />
<line x1="400" y1="455.0" x2="650" y2="297.5" stroke="#555" stroke-width="0.5" />
<line x1="400" y1="455.0" x2="650" y2="332.5" stroke="#555" stroke-width="0.5" />
<line x1="400" y1="455.0" x2="650" y2="367.5" stroke="#555" stroke-width="0.5" />
<line x1="400" y1="490.0" x2="650" y2="227.5" stroke="#555" stroke-width="0.5" />
<line x1="400" y1="490.0" x2="650" y2="262.5" stroke="#555" stroke-width="0.5" />
<line x1="400" y1="490.0" x2="650" y2="297.5" stroke="#555" stroke-width="0.5" />
<line x1="400" y1="490.0" x2="650" y2="332.5" stroke="#555" stroke-width="0.5" />
<line x1="400" y1="490.0" x2="650" y2="367.5" stroke="#555" stroke-width="0.5" />
<line x1="400" y1="525.0" x2="650" y2="227.5" stroke="#555" stroke-width="0.5" />
<line x1="400" y1="525.0" x2="650" y2="262.5" stroke="#555" stroke-width="0.5" />
<line x1="400" y1="525.0" x2="650" y2="297.5" stroke="#555" stroke-width="0.5" />
<line x1="400" y1="525.0" x2="650" y2="332.5" stroke="#555" stroke-width="0.5" />
<line x1="400" y1="525.0" x2="650" y2="367.5" stroke="#555" stroke-width="0.5" />
<line x1="400" y1="560.0" x2="650" y2="227.5" stroke="#555" stroke-width="0.5" />
<line x1="400" y1="560.0" x2="650" y2="262.5" stroke="#555" stroke-width="0.5" />
<line x1="400" y1="560.0" x2="650" y2="297.5" stroke="#555" stroke-width="0.5" />
<line x1="400" y1="560.0" x2="650" y2="332.5" stroke="#555" stroke-width="0.5" />
<line x1="400" y1="560.0" x2="650" y2="367.5" stroke="#555" stroke-width="0.5" />
<text x="150" y="50.0" font-family="Arial" font-size="16" font-weight="bold" text-anchor="middle" fill="white">Input Layer (12)</text>
<circle cx="150" cy="105.0" r="15" fill="#9400D3" stroke="#9400D3" stroke-opacity="0.8" fill-opacity="0.6" stroke-width="2" />
<text x="125" y="110.0" font-family="Arial" font-size="14" font-weight="bold" text-anchor="end" fill="#9400D3">410nm</text>
<circle cx="150" cy="140.0" r="15" fill="#4B0082" stroke="#4B0082" stroke-opacity="0.8" fill-opacity="0.6" stroke-width="2" />
<text x="125" y="145.0" font-family="Arial" font-size="14" font-weight="bold" text-anchor="end" fill="#4B0082">440nm</text>
<circle cx="150" cy="175.0" r="15" fill="#0000FF" stroke="#0000FF" stroke-opacity="0.8" fill-opacity="0.6" stroke-width="2" />
<text x="125" y="180.0" font-family="Arial" font-size="14" font-weight="bold" text-anchor="end" fill="#0000FF">470nm</text>
<circle cx="150" cy="210.0" r="15" fill="#00FF00" stroke="#00FF00" stroke-opacity="0.8" fill-opacity="0.6" stroke-width="2" />
<text x="125" y="215.0" font-family="Arial" font-size="14" font-weight="bold" text-anchor="end" fill="#00FF00">510nm</text>
<circle cx="150" cy="245.0" r="15" fill="#FFFF00" stroke="#FFFF00" stroke-opacity="0.8" fill-opacity="0.6" stroke-width="2" />
<text x="125" y="250.0" font-family="Arial" font-size="14" font-weight="bold" text-anchor="end" fill="#FFFF00">550nm</text>
<circle cx="150" cy="280.0" r="15" fill="#FF7F00" stroke="#FF7F00" stroke-opacity="0.8" fill-opacity="0.6" stroke-width="2" />
<text x="125" y="285.0" font-family="Arial" font-size="14" font-weight="bold" text-anchor="end" fill="#FF7F00">580nm</text>
<circle cx="150" cy="315.0" r="15" fill="#FF0000" stroke="#FF0000" stroke-opacity="0.8" fill-opacity="0.6" stroke-width="2" />
<text x="125" y="320.0" font-family="Arial" font-size="14" font-weight="bold" text-anchor="end" fill="#FF0000">610nm</text>
<circle cx="150" cy="350.0" r="15" fill="#8B0000" stroke="#8B0000" stroke-opacity="0.8" fill-opacity="0.6" stroke-width="2" />
<text x="125" y="355.0" font-family="Arial" font-size="14" font-weight="bold" text-anchor="end" fill="#8B0000">680nm</text>
<circle cx="150" cy="385.0" r="15" fill="#FFB6C1" stroke="#FFB6C1" stroke-opacity="0.8" fill-opacity="0.6" stroke-width="2" />
<text x="125" y="390.0" font-family="Arial" font-size="14" font-weight="bold" text-anchor="end" fill="#FFB6C1">730nm</text>
<circle cx="150" cy="420.0" r="15" fill="#FFC0CB" stroke="#FFC0CB" stroke-opacity="0.8" fill-opacity="0.6" stroke-width="2" />
<text x="125" y="425.0" font-family="Arial" font-size="14" font-weight="bold" text-anchor="end" fill="#FFC0CB">810nm</text>
<circle cx="150" cy="455.0" r="15" fill="#FFC0CB" stroke="#FFC0CB" stroke-opacity="0.8" fill-opacity="0.6" stroke-width="2" />
<text x="125" y="460.0" font-family="Arial" font-size="14" font-weight="bold" text-anchor="end" fill="#FFC0CB">860nm</text>
<circle cx="150" cy="490.0" r="15" fill="#FFFFFF" stroke="#FFFFFF" stroke-opacity="0.8" fill-opacity="0.6" stroke-width="2" />
<text x="125" y="495.0" font-family="Arial" font-size="14" font-weight="bold" text-anchor="end" fill="#FFFFFF">Clear</text>
<text x="400" y="-20.0" font-family="Arial" font-size="16" font-weight="bold" text-anchor="middle" fill="white">Hidden Layer (16)</text>
<circle cx="400" cy="35.0" r="15" fill="#333" stroke="#666" stroke-opacity="0.8" fill-opacity="0.6" stroke-width="2" />
<circle cx="400" cy="70.0" r="15" fill="#333" stroke="#666" stroke-opacity="0.8" fill-opacity="0.6" stroke-width="2" />
<circle cx="400" cy="105.0" r="15" fill="#333" stroke="#666" stroke-opacity="0.8" fill-opacity="0.6" stroke-width="2" />
<circle cx="400" cy="140.0" r="15" fill="#333" stroke="#666" stroke-opacity="0.8" fill-opacity="0.6" stroke-width="2" />
<circle cx="400" cy="175.0" r="15" fill="#333" stroke="#666" stroke-opacity="0.8" fill-opacity="0.6" stroke-width="2" />
<circle cx="400" cy="210.0" r="15" fill="#333" stroke="#666" stroke-opacity="0.8" fill-opacity="0.6" stroke-width="2" />
<circle cx="400" cy="245.0" r="15" fill="#333" stroke="#666" stroke-opacity="0.8" fill-opacity="0.6" stroke-width="2" />
<circle cx="400" cy="280.0" r="15" fill="#333" stroke="#666" stroke-opacity="0.8" fill-opacity="0.6" stroke-width="2" />
<circle cx="400" cy="315.0" r="15" fill="#333" stroke="#666" stroke-opacity="0.8" fill-opacity="0.6" stroke-width="2" />
<circle cx="400" cy="350.0" r="15" fill="#333" stroke="#666" stroke-opacity="0.8" fill-opacity="0.6" stroke-width="2" />
<circle cx="400" cy="385.0" r="15" fill="#333" stroke="#666" stroke-opacity="0.8" fill-opacity="0.6" stroke-width="2" />
<circle cx="400" cy="420.0" r="15" fill="#333" stroke="#666" stroke-opacity="0.8" fill-opacity="0.6" stroke-width="2" />
<circle cx="400" cy="455.0" r="15" fill="#333" stroke="#666" stroke-opacity="0.8" fill-opacity="0.6" stroke-width="2" />
<circle cx="400" cy="490.0" r="15" fill="#333" stroke="#666" stroke-opacity="0.8" fill-opacity="0.6" stroke-width="2" />
<circle cx="400" cy="525.0" r="15" fill="#333" stroke="#666" stroke-opacity="0.8" fill-opacity="0.6" stroke-width="2" />
<circle cx="400" cy="560.0" r="15" fill="#333" stroke="#666" stroke-opacity="0.8" fill-opacity="0.6" stroke-width="2" />
<text x="650" y="172.5" font-family="Arial" font-size="16" font-weight="bold" text-anchor="middle" fill="white">Output Layer (5)</text>
<circle cx="650" cy="227.5" r="15" fill="#FF0000" stroke="#FF0000" stroke-opacity="0.8" fill-opacity="0.6" stroke-width="2" />
<text x="675" y="232.5" font-family="Arial" font-size="14" font-weight="bold" text-anchor="start" fill="#FF0000">Red</text>
<circle cx="650" cy="262.5" r="15" fill="#FFFF00" stroke="#FFFF00" stroke-opacity="0.8" fill-opacity="0.6" stroke-width="2" />
<text x="675" y="267.5" font-family="Arial" font-size="14" font-weight="bold" text-anchor="start" fill="#FFFF00">Yellow</text>
<circle cx="650" cy="297.5" r="15" fill="#00FF00" stroke="#00FF00" stroke-opacity="0.8" fill-opacity="0.6" stroke-width="2" />
<text x="675" y="302.5" font-family="Arial" font-size="14" font-weight="bold" text-anchor="start" fill="#00FF00">Green</text>
<circle cx="650" cy="332.5" r="15" fill="#0088FF" stroke="#0088FF" stroke-opacity="0.8" fill-opacity="0.6" stroke-width="2" />
<text x="675" y="337.5" font-family="Arial" font-size="14" font-weight="bold" text-anchor="start" fill="#0088FF">Blue</text>
<circle cx="650" cy="367.5" r="15" fill="#A020F0" stroke="#A020F0" stroke-opacity="0.8" fill-opacity="0.6" stroke-width="2" />
<text x="675" y="372.5" font-family="Arial" font-size="14" font-weight="bold" text-anchor="start" fill="#A020F0">Purple</text>
</svg>