<svg width="800" height="600" xmlns="http://www.w3.org/2000/svg" style="background-color:white">
<line x1="150" y1="105.0" x2="400" y2="35.0" stroke="#ecf0f1" stroke-width="1" />
<line x1="150" y1="105.0" x2="400" y2="70.0" stroke="#ecf0f1" stroke-width="1" />
<line x1="150" y1="105.0" x2="400" y2="105.0" stroke="#ecf0f1" stroke-width="1" />
<line x1="150" y1="105.0" x2="400" y2="140.0" stroke="#ecf0f1" stroke-width="1" />
<line x1="150" y1="105.0" x2="400" y2="175.0" stroke="#ecf0f1" stroke-width="1" />
<line x1="150" y1="105.0" x2="400" y2="210.0" stroke="#ecf0f1" stroke-width="1" />
<line x1="150" y1="105.0" x2="400" y2="245.0" stroke="#ecf0f1" stroke-width="1" />
<line x1="150" y1="105.0" x2="400" y2="280.0" stroke="#ecf0f1" stroke-width="1" />
<line x1="150" y1="105.0" x2="400" y2="315.0" stroke="#ecf0f1" stroke-width="1" />
<line x1="150" y1="105.0" x2="400" y2="350.0" stroke="#ecf0f1" stroke-width="1" />
<line x1="150" y1="105.0" x2="400" y2="385.0" stroke="#ecf0f1" stroke-width="1" />
<line x1="150" y1="105.0" x2="400" y2="420.0" stroke="#ecf0f1" stroke-width="1" />
<line x1="150" y1="105.0" x2="400" y2="455.0" stroke="#ecf0f1" stroke-width="1" />
<line x1="150" y1="105.0" x2="400" y2="490.0" stroke="#ecf0f1" stroke-width="1" />
<line x1="150" y1="105.0" x2="400" y2="525.0" stroke="#ecf0f1" stroke-width="1" />
<line x1="150" y1="105.0" x2="400" y2="560.0" stroke="#ecf0f1" stroke-width="1" />
<line x1="150" y1="140.0" x2="400" y2="35.0" stroke="#ecf0f1" stroke-width="1" />
<line x1="150" y1="140.0" x2="400" y2="70.0" stroke="#ecf0f1" stroke-width="1" />
<line x1="150" y1="140.0" x2="400" y2="105.0" stroke="#ecf0f1" stroke-width="1" />
<line x1="150" y1="140.0" x2="400" y2="140.0" stroke="#ecf0f1" stroke-width="1" />
<line x1="150" y1="140.0" x2="400" y2="175.0" stroke="#ecf0f1" stroke-width="1" />
<line x1="150" y1="140.0" x2="400" y2="210.0" stroke="#ecf0f1" stroke-width="1" />
<line x1="150" y1="140.0" x2="400" y2="245.0" stroke="#ecf0f1" stroke-width="1" />
<line x1="150" y1="140.0" x2="400" y2="280.0" stroke="#ecf0f1" stroke-width="1" />
<line x1="150" y1="140.0" x2="400" y2="315.0" stroke="#ecf0f1" stroke-width="1" />
<line x1="150" y1="140.0" x2="400" y2="350.0" stroke="#ecf0f1" stroke-width="1" />
<line x1="150" y1="140.0" x2="400" y2="385.0" stroke="#ecf0f1" stroke-width="1" />
<line x1="150" y1="140.0" x2="400" y2="420.0" stroke="#ecf0f1" stroke-width="1" />
<line x1="150" y1="140.0" x2="400" y2="455.0" stroke="#ecf0f1" stroke-width="1" />
<line x1="150" y1="140.0" x2="400" y2="490.0" stroke="#ecf0f1" stroke-width="1" />
<line x1="150" y1="140.0" x2="400" y2="525.0" stroke="#ecf0f1" stroke-width="1" />
<line x1="150" y1="140.0" x2="400" y2="560.0" stroke="#ecf0f1" stroke-width="1" />
<line x1="150" y1="175.0" x2="400" y2="35.0" stroke="#ecf0f1" stroke-width="1" />
<line x1="150" y1="175.0" x2="400" y2="70.0" stroke="#ecf0f1" stroke-width="1" />
<line x1="150" y1="175.0" x2="400" y2="105.0" stroke="#ecf0f1" stroke-width="1" />
<line x1="150" y1="175.0" x2="400" y2="140.0" stroke="#ecf0f1" stroke-width="1" />
<line x1="150" y1="175.0" x2="400" y2="175.0" stroke="#ecf0f1" stroke-width="1" />
<line x1="150" y1="175.0" x2="400" y2="210.0" stroke="#ecf0f1" stroke-width="1" />
<line x1="150" y1="175.0" x2="400" y2="245.0" stroke="#ecf0f1" stroke-width="1" />
<line x1="150" y1="175.0" x2="400" y2="280.0" stroke="#ecf0f1" stroke-width="1" />
<line x1="150" y1="175.0" x2="400" y2="315.0" stroke="#ecf0f1" stroke-width="1" />
<line x1="150" y1="175.0" x2="400" y2="350.0" stroke="#ecf0f1" stroke-width="1" />
<line x1="150" y1="175.0" x2="400" y2="385.0" stroke="#ecf0f1" stroke-width="1" />
<line x1="150" y1="175.0" x2="400" y2="420.0" stroke="#ecf0f1" stroke-width="1" />
<line x1="150" y1="175.0" x2="400" y2="455.0" stroke="#ecf0f1" stroke-width="1" />
<line x1="150" y1="175.0" x2="400" y2="490.0" stroke="#ecf0f1" stroke-width="1" />
<line x1="150" y1="175.0" x2="400" y2="525.0" stroke="#ecf0f1" stroke-width="1" />
<line x1="150" y1="175.0" x2="400" y2="560.0" stroke="#ecf0f1" stroke-width="1" />
<line x1="150" y1="210.0" x2="400" y2="35.0" stroke="#ecf0f1" stroke-width="1" />
<line x1="150" y1="210.0" x2="400" y2="70.0" stroke="#ecf0f1" stroke-width="1" />
<line x1="150" y1="210.0" x2="400" y2="105.0" stroke="#ecf0f1" stroke-width="1" />
<line x1="150" y1="210.0" x2="400" y2="140.0" stroke="#ecf0f1" stroke-width="1" />
<line x1="150" y1="210.0" x2="400" y2="175.0" stroke="#ecf0f1" stroke-width="1" />
<line x1="150" y1="210.0" x2="400" y2="210.0" stroke="#ecf0f1" stroke-width="1" />
<line x1="150" y1="210.0" x2="400" y2="245.0" stroke="#ecf0f1" stroke-width="1" />
<line x1="150" y1="210.0" x2="400" y2="280.0" stroke="#ecf0f1" stroke-width="1" />
<line x1="150" y1="210.0" x2="400" y2="315.0" stroke="#ecf0f1" stroke-width="1" />
<line x1="150" y1="210.0" x2="400" y2="350.0" stroke="#ecf0f1" stroke-width="1" />
<line x1="150" y1="210.0" x2="400" y2="385.0" stroke="#ecf0f1" stroke-width="1" />
<line x1="150" y1="210.0" x2="400" y2="420.0" stroke="#ecf0f1" stroke-width="1" />
<line x1="150" y1="210.0" x2="400" y2="455.0" stroke="#ecf0f1" stroke-width="1" />
<line x1="150" y1="210.0" x2="400" y2="490.0" stroke="#ecf0f1" stroke-width="1" />
<line x1="150" y1="210.0" x2="400" y2="525.0" stroke="#ecf0f1" stroke-width="1" />
<line x1="150" y1="210.0" x2="400" y2="560.0" stroke="#ecf0f1" stroke-width="1" />
<line x1="150" y1="245.0" x2="400" y2="35.0" stroke="#ecf0f1" stroke-width="1" />
<line x1="150" y1="245.0" x2="400" y2="70.0" stroke="#ecf0f1" stroke-width="1" />
<line x1="150" y1="245.0" x2="400" y2="105.0" stroke="#ecf0f1" stroke-width="1" />
<line x1="150" y1="245.0" x2="400" y2="140.0" stroke="#ecf0f1" stroke-width="1" />
<line x1="150" y1="245.0" x2="400" y2="175.0" stroke="#ecf0f1" stroke-width="1" />
<line x1="150" y1="245.0" x2="400" y2="210.0" stroke="#ecf0f1" stroke-width="1" />
<line x1="150" y1="245.0" x2="400" y2="245.0" stroke="#ecf0f1" stroke-width="1" />
<line x1="150" y1="245.0" x2="400" y2="280.0" stroke="#ecf0f1" stroke-width="1" />
<line x1="150" y1="245.0" x2="400" y2="315.0" stroke="#ecf0f1" stroke-width="1" />
<line x1="150" y1="245.0" x2="400" y2="350.0" stroke="#ecf0f1" stroke-width="1" />
<line x1="150" y1="245.0" x2="400" y2="385.0" stroke="#ecf0f1" stroke-width="1" />
<line x1="150" y1="245.0" x2="400" y2="420.0" stroke="#ecf0f1" stroke-width="1" />
<line x1="150" y1="245.0" x2="400" y2="455.0" stroke="#ecf0f1" stroke-width="1" />
<line x1="150" y1="245.0" x2="400" y2="490.0" stroke="#ecf0f1" stroke-width="1" />
<line x1="150" y1="245.0" x2="400" y2="525.0" stroke="#ecf0f1" stroke-width="1" />
<line x1="150" y1="245.0" x2="400" y2="560.0" stroke="#ecf0f1" stroke-width="1" />
<line x1="150" y1="280.0" x2="400" y2="35.0" stroke="#ecf0f1" stroke-width="1" />
<line x1="150" y1="280.0" x2="400" y2="70.0" stroke="#ecf0f1" stroke-width="1" />
<line x1="150" y1="280.0" x2="400" y2="105.0" stroke="#ecf0f1" stroke-width="1" />
<line x1="150" y1="280.0" x2="400" y2="140.0" stroke="#ecf0f1" stroke-width="1" />
<line x1="150" y1="280.0" x2="400" y2="175.0" stroke="#ecf0f1" stroke-width="1" />
<line x1="150" y1="280.0" x2="400" y2="210.0" stroke="#ecf0f1" stroke-width="1" />
<line x1="150" y1="280.0" x2="400" y2="245.0" stroke="#ecf0f1" stroke-width="1" />
<line x1="150" y1="280.0" x2="400" y2="280.0" stroke="#ecf0f1" stroke-width="1" />
<line x1="150" y1="280.0" x2="400" y2="315.0" stroke="#ecf0f1" stroke-width="1" />
<line x1="150" y1="280.0" x2="400" y2="350.0" stroke="#ecf0f1" stroke-width="1" />
<line x1="150" y1="280.0" x2="400" y2="385.0" stroke="#ecf0f1" stroke-width="1" />
<line x1="150" y1="280.0" x2="400" y2="420.0" stroke="#ecf0f1" stroke-width="1" />
<line x1="150" y1="280.0" x2="400" y2="455.0" stroke="#ecf0f1" stroke-width="1" />
<line x1="150" y1="280.0" x2="400" y2="490.0" stroke="#ecf0f1" stroke-width="1" />
<line x1="150" y1="280.0" x2="400" y2="525.0" stroke="#ecf0f1" stroke-width="1" />
<line x1="150" y1="280.0" x2="400" y2="560.0" stroke="#ecf0f1" stroke-width="1" />
<line x1="150" y1="315.0" x2="400" y2="35.0" stroke="#ecf0f1" stroke-width="1" />
<line x1="150" y1="315.0" x2="400" y2="70.0" stroke="#ecf0f1" stroke-width="1" />
<line x1="150" y1="315.0" x2="400" y2="105.0" stroke="#ecf0f1" stroke-width="1" />
<line x1="150" y1="315.0" x2="400" y2="140.0" stroke="#ecf0f1" stroke-width="1" />
<line x1="150" y1="315.0" x2="400" y2="175.0" stroke="#ecf0f1" stroke-width="1" />
<line x1="150" y1="315.0" x2="400" y2="210.0" stroke="#ecf0f1" stroke-width="1" />
<line x1="150" y1="315.0" x2="400" y2="245.0" stroke="#ecf0f1" stroke-width="1" />
<line x1="150" y1="315.0" x2="400" y2="280.0" stroke="#ecf0f1" stroke-width="1" />
<line x1="150" y1="315.0" x2="400" y2="315.0" stroke="#ecf0f1" stroke-width="1" />
<line x1="150" y1="315.0" x2="400" y2="350.0" stroke="#ecf0f1" stroke-width="1" />
<line x1="150" y1="315.0" x2="400" y2="385.0" stroke="#ecf0f1" stroke-width="1" />
<line x1="150" y1="315.0" x2="400" y2="420.0" stroke="#ecf0f1" stroke-width="1" />
<line x1="150" y1="315.0" x2="400" y2="455.0" stroke="#ecf0f1" stroke-width="1" />
<line x1="150" y1="315.0" x2="400" y2="490.0" stroke="#ecf0f1" stroke-width="1" />
<line x1="150" y1="315.0" x2="400" y2="525.0" stroke="#ecf0f1" stroke-width="1" />
<line x1="150" y1="315.0" x2="400" y2="560.0" stroke="#ecf0f1" stroke-width="1" />
<line x1="150" y1="350.0" x2="400" y2="35.0" stroke="#ecf0f1" stroke-width="1" />
<line x1="150" y1="350.0" x2="400" y2="70.0" stroke="#ecf0f1" stroke-width="1" />
<line x1="150" y1="350.0" x2="400" y2="105.0" stroke="#ecf0f1" stroke-width="1" />
<line x1="150" y1="350.0" x2="400" y2="140.0" stroke="#ecf0f1" stroke-width="1" />
<line x1="150" y1="350.0" x2="400" y2="175.0" stroke="#ecf0f1" stroke-width="1" />
<line x1="150" y1="350.0" x2="400" y2="210.0" stroke="#ecf0f1" stroke-width="1" />
<line x1="150" y1="350.0" x2="400" y2="245.0" stroke="#ecf0f1" stroke-width="1" />
<line x1="150" y1="350.0" x2="400" y2="280.0" stroke="#ecf0f1" stroke-width="1" />
<line x1="150" y1="350.0" x2="400" y2="315.0" stroke="#ecf0f1" stroke-width="1" />
<line x1="150" y1="350.0" x2="400" y2="350.0" stroke="#ecf0f1" stroke-width="1" />
<line x1="150" y1="350.0" x2="400" y2="385.0" stroke="#ecf0f1" stroke-width="1" />
<line x1="150" y1="350.0" x2="400" y2="420.0" stroke="#ecf0f1" stroke-width="1" />
<line x1="150" y1="350.0" x2="400" y2="455.0" stroke="#ecf0f1" stroke-width="1" />
<line x1="150" y1="350.0" x2="400" y2="490.0" stroke="#ecf0f1" stroke-width="1" />
<line x1="150" y1="350.0" x2="400" y2="525.0" stroke="#ecf0f1" stroke-width="1" />
<line x1="150" y1="350.0" x2="400" y2="560.0" stroke="#ecf0f1" stroke-width="1" />
<line x1="150" y1="385.0" x2="400" y2="35.0" stroke="#ecf0f1" stroke-width="1" />
<line x1="150" y1="385.0" x2="400" y2="70.0" stroke="#ecf0f1" stroke-width="1" />
<line x1="150" y1="385.0" x2="400" y2="105.0" stroke="#ecf0f1" stroke-width="1" />
<line x1="150" y1="385.0" x2="400" y2="140.0" stroke="#ecf0f1" stroke-width="1" />
<line x1="150" y1="385.0" x2="400" y2="175.0" stroke="#ecf0f1" stroke-width="1" />
<line x1="150" y1="385.0" x2="400" y2="210.0" stroke="#ecf0f1" stroke-width="1" />
<line x1="150" y1="385.0" x2="400" y2="245.0" stroke="#ecf0f1" stroke-width="1" />
<line x1="150" y1="385.0" x2="400" y2="280.0" stroke="#ecf0f1" stroke-width="1" />
<line x1="150" y1="385.0" x2="400" y2="315.0" stroke="#ecf0f1" stroke-width="1" />
<line x1="150" y1="385.0" x2="400" y2="350.0" stroke="#ecf0f1" stroke-width="1" />
<line x1="150" y1="385.0" x2="400" y2="385.0" stroke="#ecf0f1" stroke-width="1" />
<line x1="150" y1="385.0" x2="400" y2="420.0" stroke="#ecf0f1" stroke-width="1" />
<line x1="150" y1="385.0" x2="400" y2="455.0" stroke="#ecf0f1" stroke-width="1" />
<line x1="150" y1="385.0" x2="400" y2="490.0" stroke="#ecf0f1" stroke-width="1" />
<line x1="150" y1="385.0" x2="400" y2="525.0" stroke="#ecf0f1" stroke-width="1" />
<line x1="150" y1="385.0" x2="400" y2="560.0" stroke="#ecf0f1" stroke-width="1" />
<line x1="150" y1="420.0" x2="400" y2="35.0" stroke="#ecf0f1" stroke-width="1" />
<line x1="150" y1="420.0" x2="400" y2="70.0" stroke="#ecf0f1" stroke-width="1" />
<line x1="150" y1="420.0" x2="400" y2="105.0" stroke="#ecf0f1" stroke-width="1" />
<line x1="150" y1="420.0" x2="400" y2="140.0" stroke="#ecf0f1" stroke-width="1" />
<line x1="150" y1="420.0" x2="400" y2="175.0" stroke="#ecf0f1" stroke-width="1" />
<line x1="150" y1="420.0" x2="400" y2="210.0" stroke="#ecf0f1" stroke-width="1" />
<line x1="150" y1="420.0" x2="400" y2="245.0" stroke="#ecf0f1" stroke-width="1" />
<line x1="150" y1="420.0" x2="400" y2="280.0" stroke="#ecf0f1" stroke-width="1" />
<line x1="150" y1="420.0" x2="400" y2="315.0" stroke="#ecf0f1" stroke-width="1" />
<line x1="150" y1="420.0" x2="400" y2="350.0" stroke="#ecf0f1" stroke-width="1" />
<line x1="150" y1="420.0" x2="400" y2="385.0" stroke="#ecf0f1" stroke-width="1" />
<line x1="150" y1="420.0" x2="400" y2="420.0" stroke="#ecf0f1" stroke-width="1" />
<line x1="150" y1="420.0" x2="400" y2="455.0" stroke="#ecf0f1" stroke-width="1" />
<line x1="150" y1="420.0" x2="400" y2="490.0" stroke="#ecf0f1" stroke-width="1" />
<line x1="150" y1="420.0" x2="400" y2="525.0" stroke="#ecf0f1" stroke-width="1" />
<line x1="150" y1="420.0" x2="400" y2="560.0" stroke="#ecf0f1" stroke-width="1" />
<line x1="150" y1="455.0" x2="400" y2="35.0" stroke="#ecf0f1" stroke-width="1" />
<line x1="150" y1="455.0" x2="400" y2="70.0" stroke="#ecf0f1" stroke-width="1" />
<line x1="150" y1="455.0" x2="400" y2="105.0" stroke="#ecf0f1" stroke-width="1" />
<line x1="150" y1="455.0" x2="400" y2="140.0" stroke="#ecf0f1" stroke-width="1" />
<line x1="150" y1="455.0" x2="400" y2="175.0" stroke="#ecf0f1" stroke-width="1" />
<line x1="150" y1="455.0" x2="400" y2="210.0" stroke="#ecf0f1" stroke-width="1" />
<line x1="150" y1="455.0" x2="400" y2="245.0" stroke="#ecf0f1" stroke-width="1" />
<line x1="150" y1="455.0" x2="400" y2="280.0" stroke="#ecf0f1" stroke-width="1" />
<line x1="150" y1="455.0" x2="400" y2="315.0" stroke="#ecf0f1" stroke-width="1" />
<line x1="150" y1="455.0" x2="400" y2="350.0" stroke="#ecf0f1" stroke-width="1" />
<line x1="150" y1="455.0" x2="400" y2="385.0" stroke="#ecf0f1" stroke-width="1" />
<line x1="150" y1="455.0" x2="400" y2="420.0" stroke="#ecf0f1" stroke-width="1" />
<line x1="150" y1="455.0" x2="400" y2="455.0" stroke="#ecf0f1" stroke-width="1" />
<line x1="150" y1="455.0" x2="400" y2="490.0" stroke="#ecf0f1" stroke-width="1" />
<line x1="150" y1="455.0" x2="400" y2="525.0" stroke="#ecf0f1" stroke-width="1" />
<line x1="150" y1="455.0" x2="400" y2="560.0" stroke="#ecf0f1" stroke-width="1" />
<line x1="150" y1="490.0" x2="400" y2="35.0" stroke="#ecf0f1" stroke-width="1" />
<line x1="150" y1="490.0" x2="400" y2="70.0" stroke="#ecf0f1" stroke-width="1" />
<line x1="150" y1="490.0" x2="400" y2="105.0" stroke="#ecf0f1" stroke-width="1" />
<line x1="150" y1="490.0" x2="400" y2="140.0" stroke="#ecf0f1" stroke-width="1" />
<line x1="150" y1="490.0" x2="400" y2="175.0" stroke="#ecf0f1" stroke-width="1" />
<line x1="150" y1="490.0" x2="400" y2="210.0" stroke="#ecf0f1" stroke-width="1" />
<line x1="150" y1="490.0" x2="400" y2="245.0" stroke="#ecf0f1" stroke-width="1" />
<line x1="150" y1="490.0" x2="400" y2="280.0" stroke="#ecf0f1" stroke-width="1" />
<line x1="150" y1="490.0" x2="400" y2="315.0" stroke="#ecf0f1" stroke-width="1" />
<line x1="150" y1="490.0" x2="400" y2="350.0" stroke="#ecf0f1" stroke-width="1" />
<line x1="150" y1="490.0" x2="400" y2="385.0" stroke="#ecf0f1" stroke-width="1" />
<line x1="150" y1="490.0" x2="400" y2="420.0" stroke="#ecf0f1" stroke-width="1" />
<line x1="150" y1="490.0" x2="400" y2="455.0" stroke="#ecf0f1" stroke-width="1" />
<line x1="150" y1="490.0" x2="400" y2="490.0" stroke="#ecf0f1" stroke-width="1" />
<line x1="150" y1="490.0" x2="400" y2="525.0" stroke="#ecf0f1" stroke-width="1" />
<line x1="150" y1="490.0" x2="400" y2="560.0" stroke="#ecf0f1" stroke-width="1" />
<line x1="400" y1="35.0" x2="650" y2="227.5" stroke="#ecf0f1" stroke-width="1" />
<line x1="400" y1="35.0" x2="650" y2="262.5" stroke="#ecf0f1" stroke-width="1" />
<line x1="400" y1="35.0" x2="650" y2="297.5" stroke="#ecf0f1" stroke-width="1" />
<line x1="400" y1="35.0" x2="650" y2="332.5" stroke="#ecf0f1" stroke-width="1" />
<line x1="400" y1="35.0" x2="650" y2="367.5" stroke="#ecf0f1" stroke-width="1" />
<line x1="400" y1="70.0" x2="650" y2="227.5" stroke="#ecf0f1" stroke-width="1" />
<line x1="400" y1="70.0" x2="650" y2="262.5" stroke="#ecf0f1" stroke-width="1" />
<line x1="400" y1="70.0" x2="650" y2="297.5" stroke="#ecf0f1" stroke-width="1" />
<line x1="400" y1="70.0" x2="650" y2="332.5" stroke="#ecf0f1" stroke-width="1" />
<line x1="400" y1="70.0" x2="650" y2="367.5" stroke="#ecf0f1" stroke-width="1" />
<line x1="400" y1="105.0" x2="650" y2="227.5" stroke="#ecf0f1" stroke-width="1" />
<line x1="400" y1="105.0" x2="650" y2="262.5" stroke="#ecf0f1" stroke-width="1" />
<line x1="400" y1="105.0" x2="650" y2="297.5" stroke="#ecf0f1" stroke-width="1" />
<line x1="400" y1="105.0" x2="650" y2="332.5" stroke="#ecf0f1" stroke-width="1" />
<line x1="400" y1="105.0" x2="650" y2="367.5" stroke="#ecf0f1" stroke-width="1" />
<line x1="400" y1="140.0" x2="650" y2="227.5" stroke="#ecf0f1" stroke-width="1" />
<line x1="400" y1="140.0" x2="650" y2="262.5" stroke="#ecf0f1" stroke-width="1" />
<line x1="400" y1="140.0" x2="650" y2="297.5" stroke="#ecf0f1" stroke-width="1" />
<line x1="400" y1="140.0" x2="650" y2="332.5" stroke="#ecf0f1" stroke-width="1" />
<line x1="400" y1="140.0" x2="650" y2="367.5" stroke="#ecf0f1" stroke-width="1" />
<line x1="400" y1="175.0" x2="650" y2="227.5" stroke="#ecf0f1" stroke-width="1" />
<line x1="400" y1="175.0" x2="650" y2="262.5" stroke="#ecf0f1" stroke-width="1" />
<line x1="400" y1="175.0" x2="650" y2="297.5" stroke="#ecf0f1" stroke-width="1" />
<line x1="400" y1="175.0" x2="650" y2="332.5" stroke="#ecf0f1" stroke-width="1" />
<line x1="400" y1="175.0" x2="650" y2="367.5" stroke="#ecf0f1" stroke-width="1" />
<line x1="400" y1="210.0" x2="650" y2="227.5" stroke="#ecf0f1" stroke-width="1" />
<line x1="400" y1="210.0" x2="650" y2="262.5" stroke="#ecf0f1" stroke-width="1" />
<line x1="400" y1="210.0" x2="650" y2="297.5" stroke="#ecf0f1" stroke-width="1" />
<line x1="400" y1="210.0" x2="650" y2="332.5" stroke="#ecf0f1" stroke-width="1" />
<line x1="400" y1="210.0" x2="650" y2="367.5" stroke="#ecf0f1" stroke-width="1" />
<line x1="400" y1="245.0" x2="650" y2="227.5" stroke="#ecf0f1" stroke-width="1" />
<line x1="400" y1="245.0" x2="650" y2="262.5" stroke="#ecf0f1" stroke-width="1" />
<line x1="400" y1="245.0" x2="650" y2="297.5" stroke="#ecf0f1" stroke-width="1" />
<line x1="400" y1="245.0" x2="650" y2="332.5" stroke="#ecf0f1" stroke-width="1" />
<line x1="400" y1="245.0" x2="650" y2="367.5" stroke="#ecf0f1" stroke-width="1" />
<line x1="400" y1="280.0" x2="650" y2="227.5" stroke="#ecf0f1" stroke-width="1" />
<line x1="400" y1="280.0" x2="650" y2="262.5" stroke="#ecf0f1" stroke-width="1" />
<line x1="400" y1="280.0" x2="650" y2="297.5" stroke="#ecf0f1" stroke-width="1" />
<line x1="400" y1="280.0" x2="650" y2="332.5" stroke="#ecf0f1" stroke-width="1" />
<line x1="400" y1="280.0" x2="650" y2="367.5" stroke="#ecf0f1" stroke-width="1" />
<line x1="400" y1="315.0" x2="650" y2="227.5" stroke="#ecf0f1" stroke-width="1" />
<line x1="400" y1="315.0" x2="650" y2="262.5" stroke="#ecf0f1" stroke-width="1" />
<line x1="400" y1="315.0" x2="650" y2="297.5" stroke="#ecf0f1" stroke-width="1" />
<line x1="400" y1="315.0" x2="650" y2="332.5" stroke="#ecf0f1" stroke-width="1" />
<line x1="400" y1="315.0" x2="650" y2="367.5" stroke="#ecf0f1" stroke-width="1" />
<line x1="400" y1="350.0" x2="650" y2="227.5" stroke="#ecf0f1" stroke-width="1" />
<line x1="400" y1="350.0" x2="650" y2="262.5" stroke="#ecf0f1" stroke-width="1" />
<line x1="400" y1="350.0" x2="650" y2="297.5" stroke="#ecf0f1" stroke-width="1" />
<line x1="400" y1="350.0" x2="650" y2="332.5" stroke="#ecf0f1" stroke-width="1" />
<line x1="400" y1="350.0" x2="650" y2="367.5" stroke="#ecf0f1" stroke-width="1" />
<line x1="400" y1="385.0" x2="650" y2="227.5" stroke="#ecf0f1" stroke-width="1" />
<line x1="400" y1="385.0" x2="650" y2="262.5" stroke="#ecf0f1" stroke-width="1" />
<line x1="400" y1="385.0" x2="650" y2="297.5" stroke="#ecf0f1" stroke-width="1" />
<line x1="400" y1="385.0" x2="650" y2="332.5" stroke="#ecf0f1" stroke-width="1" />
<line x1="400" y1="385.0" x2="650" y2="367.5" stroke="#ecf0f1" stroke-width="1" />
<line x1="400" y1="420.0" x2="650" y2="227.5" stroke="#ecf0f1" stroke-width="1" />
<line x1="400" y1="420.0" x2="650" y2="262.5" stroke="#ecf0f1" stroke-width="1" />
<line x1="400" y1="420.0" x2="650" y2="297.5" stroke="#ecf0f1" stroke-width="1" />
<line x1="400" y1="420.0" x2="650" y2="332.5" stroke="#ecf0f1" stroke-width="1" />
<line x1="400" y1="420.0" x2="650" y2="367.5" stroke="#ecf0f1" stroke-width="1" />
<line x1="400" y1="455.0" x2="650" y2="227.5" stroke="#ecf0f1" stroke-width="1" />
<line x1="400" y1="455.0" x2="650" y2="262.5" stroke="#ecf0f1" stroke-width="1" />
<line x1="400" y1="455.0" x2="650" y2="297.5" stroke="#ecf0f1" stroke-width="1" />
<line x1="400" y1="455.0" x2="650" y2="332.5" stroke="#ecf0f1" stroke-width="1" />
<line x1="400" y1="455.0" x2="650" y2="367.5" stroke="#ecf0f1" stroke-width="1" />
<line x1="400" y1="490.0" x2="650" y2="227.5" stroke="#ecf0f1" stroke-width="1" />
<line x1="400" y1="490.0" x2="650" y2="262.5" stroke="#ecf0f1" stroke-width="1" />
<line x1="400" y1="490.0" x2="650" y2="297.5" stroke="#ecf0f1" stroke-width="1" />
<line x1="400" y1="490.0" x2="650" y2="332.5" stroke="#ecf0f1" stroke-width="1" />
<line x1="400" y1="490.0" x2="650" y2="367.5" stroke="#ecf0f1" stroke-width="1" />
<line x1="400" y1="525.0" x2="650" y2="227.5" stroke="#ecf0f1" stroke-width="1" />
<line x1="400" y1="525.0" x2="650" y2="262.5" stroke="#ecf0f1" stroke-width="1" />
<line x1="400" y1="525.0" x2="650" y2="297.5" stroke="#ecf0f1" stroke-width="1" />
<line x1="400" y1="525.0" x2="650" y2="332.5" stroke="#ecf0f1" stroke-width="1" />
<line x1="400" y1="525.0" x2="650" y2="367.5" stroke="#ecf0f1" stroke-width="1" />
<line x1="400" y1="560.0" x2="650" y2="227.5" stroke="#ecf0f1" stroke-width="1" />
<line x1="400" y1="560.0" x2="650" y2="262.5" stroke="#ecf0f1" stroke-width="1" />
<line x1="400" y1="560.0" x2="650" y2="297.5" stroke="#ecf0f1" stroke-width="1" />
<line x1="400" y1="560.0" x2="650" y2="332.5" stroke="#ecf0f1" stroke-width="1" />
<line x1="400" y1="560.0" x2="650" y2="367.5" stroke="#ecf0f1" stroke-width="1" />
<text x="150" y="50.0" font-family="Arial" font-size="14" font-weight="bold" text-anchor="middle" fill="#2c3e50">Input Layer (12)</text>
<circle cx="150" cy="90.0" r="15" fill="#3498db" stroke="#34495e" stroke-width="2" />
<text x="125" y="95.0" font-family="Arial" font-size="12" text-anchor="end" fill="#2c3e50">410nm</text>
<circle cx="150" cy="125.0" r="15" fill="#3498db" stroke="#34495e" stroke-width="2" />
<text x="125" y="130.0" font-family="Arial" font-size="12" text-anchor="end" fill="#2c3e50">440nm</text>
<circle cx="150" cy="160.0" r="15" fill="#3498db" stroke="#34495e" stroke-width="2" />
<text x="125" y="165.0" font-family="Arial" font-size="12" text-anchor="end" fill="#2c3e50">470nm</text>
<circle cx="150" cy="195.0" r="15" fill="#3498db" stroke="#34495e" stroke-width="2" />
<text x="125" y="200.0" font-family="Arial" font-size="12" text-anchor="end" fill="#2c3e50">510nm</text>
<circle cx="150" cy="230.0" r="15" fill="#3498db" stroke="#34495e" stroke-width="2" />
<text x="125" y="235.0" font-family="Arial" font-size="12" text-anchor="end" fill="#2c3e50">550nm</text>
<circle cx="150" cy="265.0" r="15" fill="#3498db" stroke="#34495e" stroke-width="2" />
<text x="125" y="270.0" font-family="Arial" font-size="12" text-anchor="end" fill="#2c3e50">580nm</text>
<circle cx="150" cy="300.0" r="15" fill="#3498db" stroke="#34495e" stroke-width="2" />
<text x="125" y="305.0" font-family="Arial" font-size="12" text-anchor="end" fill="#2c3e50">610nm</text>
<circle cx="150" cy="335.0" r="15" fill="#3498db" stroke="#34495e" stroke-width="2" />
<text x="125" y="340.0" font-family="Arial" font-size="12" text-anchor="end" fill="#2c3e50">680nm</text>
<circle cx="150" cy="370.0" r="15" fill="#3498db" stroke="#34495e" stroke-width="2" />
<text x="125" y="375.0" font-family="Arial" font-size="12" text-anchor="end" fill="#2c3e50">730nm</text>
<circle cx="150" cy="405.0" r="15" fill="#3498db" stroke="#34495e" stroke-width="2" />
<text x="125" y="410.0" font-family="Arial" font-size="12" text-anchor="end" fill="#2c3e50">810nm</text>
<circle cx="150" cy="440.0" r="15" fill="#3498db" stroke="#34495e" stroke-width="2" />
<text x="125" y="445.0" font-family="Arial" font-size="12" text-anchor="end" fill="#2c3e50">860nm</text>
<circle cx="150" cy="475.0" r="15" fill="#3498db" stroke="#34495e" stroke-width="2" />
<text x="125" y="480.0" font-family="Arial" font-size="12" text-anchor="end" fill="#2c3e50">Clear</text>
<text x="400" y="-20.0" font-family="Arial" font-size="14" font-weight="bold" text-anchor="middle" fill="#2c3e50">Hidden Layer (16)</text>
<circle cx="400" cy="20.0" r="15" fill="#95a5a6" stroke="#34495e" stroke-width="2" />
<circle cx="400" cy="55.0" r="15" fill="#95a5a6" stroke="#34495e" stroke-width="2" />
<circle cx="400" cy="90.0" r="15" fill="#95a5a6" stroke="#34495e" stroke-width="2" />
<circle cx="400" cy="125.0" r="15" fill="#95a5a6" stroke="#34495e" stroke-width="2" />
<circle cx="400" cy="160.0" r="15" fill="#95a5a6" stroke="#34495e" stroke-width="2" />
<circle cx="400" cy="195.0" r="15" fill="#95a5a6" stroke="#34495e" stroke-width="2" />
<circle cx="400" cy="230.0" r="15" fill="#95a5a6" stroke="#34495e" stroke-width="2" />
<circle cx="400" cy="265.0" r="15" fill="#95a5a6" stroke="#34495e" stroke-width="2" />
<circle cx="400" cy="300.0" r="15" fill="#95a5a6" stroke="#34495e" stroke-width="2" />
<circle cx="400" cy="335.0" r="15" fill="#95a5a6" stroke="#34495e" stroke-width="2" />
<circle cx="400" cy="370.0" r="15" fill="#95a5a6" stroke="#34495e" stroke-width="2" />
<circle cx="400" cy="405.0" r="15" fill="#95a5a6" stroke="#34495e" stroke-width="2" />
<circle cx="400" cy="440.0" r="15" fill="#95a5a6" stroke="#34495e" stroke-width="2" />
<circle cx="400" cy="475.0" r="15" fill="#95a5a6" stroke="#34495e" stroke-width="2" />
<circle cx="400" cy="510.0" r="15" fill="#95a5a6" stroke="#34495e" stroke-width="2" />
<circle cx="400" cy="545.0" r="15" fill="#95a5a6" stroke="#34495e" stroke-width="2" />
<text x="650" y="172.5" font-family="Arial" font-size="14" font-weight="bold" text-anchor="middle" fill="#2c3e50">Output Layer (5)</text>
<circle cx="650" cy="212.5" r="15" fill="#e74c3c" stroke="#34495e" stroke-width="2" />
<text x="675" y="217.5" font-family="Arial" font-size="12" text-anchor="start" fill="#2c3e50">Red</text>
<circle cx="650" cy="247.5" r="15" fill="#e74c3c" stroke="#34495e" stroke-width="2" />
<text x="675" y="252.5" font-family="Arial" font-size="12" text-anchor="start" fill="#2c3e50">Yellow</text>
<circle cx="650" cy="282.5" r="15" fill="#e74c3c" stroke="#34495e" stroke-width="2" />
<text x="675" y="287.5" font-family="Arial" font-size="12" text-anchor="start" fill="#2c3e50">Green</text>
<circle cx="650" cy="317.5" r="15" fill="#e74c3c" stroke="#34495e" stroke-width="2" />
<text x="675" y="322.5" font-family="Arial" font-size="12" text-anchor="start" fill="#2c3e50">Blue</text>
<circle cx="650" cy="352.5" r="15" fill="#e74c3c" stroke="#34495e" stroke-width="2" />
<text x="675" y="357.5" font-family="Arial" font-size="12" text-anchor="start" fill="#2c3e50">Purple</text>
</svg>